<?xml version="1.0" encoding="UTF-8"?>
<svg xmlns="http://www.w3.org/2000/svg" xmlns:xlink="http://www.w3.org/1999/xlink" viewBox="0 0 221.08 112.8">
  <defs>
    <style>
      .cls-1 {
        stroke: url(#linear-gradient-2);
      }

      .cls-1, .cls-2, .cls-3, .cls-4, .cls-5, .cls-6, .cls-7, .cls-8, .cls-9, .cls-10, .cls-11, .cls-12, .cls-13, .cls-14 {
        fill: none;
        stroke-miterlimit: 10;
      }

      .cls-2 {
        stroke: url(#linear-gradient-3);
      }

      .cls-3 {
        stroke: url(#linear-gradient-9);
      }

      .cls-15 {
        fill: #090;
        font-family: ArialRoundedMTBold, 'Arial Rounded MT Bold';
      }

      .cls-16 {
        font-size: 41px;
      }

      .cls-17 {
        fill: url(#linear-gradient-15);
      }

      .cls-4 {
        stroke: url(#linear-gradient-4);
      }

      .cls-5 {
        stroke: url(#linear-gradient-6);
      }

      .cls-18 {
        fill: url(#linear-gradient-14);
      }

      .cls-19 {
        fill: url(#radial-gradient-5);
      }

      .cls-20 {
        fill: url(#radial-gradient-4);
      }

      .cls-21 {
        letter-spacing: -.06em;
      }

      .cls-21, .cls-22 {
        font-family: ArialMT, Arial;
      }

      .cls-23 {
        font-family: Arial-ItalicMT, Arial;
      }

      .cls-24 {
        fill: #0070bf;
      }

      .cls-6 {
        stroke: url(#linear-gradient-13);
      }

      .cls-25 {
        fill: url(#radial-gradient-6);
      }

      .cls-7 {
        stroke: #7f9dd7;
      }

      .cls-26 {
        fill: url(#radial-gradient);
      }

      .cls-8 {
        stroke: url(#linear-gradient-7);
      }

      .cls-9 {
        stroke: url(#linear-gradient-12);
      }

      .cls-10 {
        stroke: url(#linear-gradient-5);
      }

      .cls-27 {
        fill: #77933c;
        font-size: 11px;
      }

      .cls-28 {
        fill: url(#radial-gradient-2);
      }

      .cls-29 {
        fill: url(#radial-gradient-3);
      }

      .cls-11 {
        stroke: url(#linear-gradient);
        stroke-width: 4px;
      }

      .cls-30 {
        font-size: 49px;
      }

      .cls-12 {
        stroke: url(#linear-gradient-11);
      }

      .cls-13 {
        stroke: url(#linear-gradient-8);
      }

      .cls-14 {
        stroke: url(#linear-gradient-10);
      }
    </style>
    <linearGradient id="linear-gradient" x1="11.82" y1="28.51" x2="68.91" y2="85.6" gradientUnits="userSpaceOnUse">
      <stop offset=".04" stop-color="#a0c7eb"/>
      <stop offset=".64" stop-color="#fff" stop-opacity="0"/>
    </linearGradient>
    <linearGradient id="linear-gradient-2" x1="55.45" y1="71.3" x2="59.57" y2="71.3" gradientUnits="userSpaceOnUse">
      <stop offset="0" stop-color="#90be3e"/>
      <stop offset=".64" stop-color="#58aa44"/>
      <stop offset="1" stop-color="#58aa44"/>
    </linearGradient>
    <linearGradient id="linear-gradient-3" x1="56.89" y1="68.92" x2="61.54" y2="68.92" xlink:href="#linear-gradient-2"/>
    <linearGradient id="linear-gradient-4" x1="58.37" y1="66.42" x2="63.22" y2="66.42" xlink:href="#linear-gradient-2"/>
    <linearGradient id="linear-gradient-5" x1="59.88" y1="64.13" x2="63.1" y2="64.13" xlink:href="#linear-gradient-2"/>
    <linearGradient id="linear-gradient-6" x1="60.68" y1="59.58" x2="62.19" y2="59.58" xlink:href="#linear-gradient-2"/>
    <linearGradient id="linear-gradient-7" x1="59.42" y1="57.92" x2="62.41" y2="57.92" xlink:href="#linear-gradient-2"/>
    <linearGradient id="linear-gradient-8" x1="58.48" y1="56.06" x2="62.05" y2="56.06" xlink:href="#linear-gradient-2"/>
    <linearGradient id="linear-gradient-9" x1="57.73" y1="54.3" x2="61.49" y2="54.3" xlink:href="#linear-gradient-2"/>
    <linearGradient id="linear-gradient-10" x1="57" y1="52.6" x2="60.44" y2="52.6" xlink:href="#linear-gradient-2"/>
    <linearGradient id="linear-gradient-11" x1="56.16" y1="50.58" x2="58.69" y2="50.58" xlink:href="#linear-gradient-2"/>
    <linearGradient id="linear-gradient-12" x1="48.49" y1="59.36" x2="62.88" y2="59.36" gradientUnits="userSpaceOnUse">
      <stop offset="0" stop-color="#58aa44"/>
      <stop offset=".42" stop-color="#90be3e"/>
      <stop offset=".64" stop-color="#58aa44"/>
      <stop offset="1" stop-color="#58aa44"/>
    </linearGradient>
    <linearGradient id="linear-gradient-13" x1="53.4" y1="56.49" x2="63.91" y2="56.49" gradientUnits="userSpaceOnUse">
      <stop offset="0" stop-color="#58aa44"/>
      <stop offset=".41" stop-color="#90be3e"/>
      <stop offset=".68" stop-color="#58aa44"/>
      <stop offset="1" stop-color="#58aa44"/>
    </linearGradient>
    <linearGradient id="linear-gradient-14" x1="23.4" y1="45.04" x2="50.48" y2="45.04" xlink:href="#linear-gradient-2"/>
    <linearGradient id="linear-gradient-15" x1="69.13" y1="4.71" x2="49.46" y2="38.79" gradientUnits="userSpaceOnUse">
      <stop offset="0" stop-color="#90be3e"/>
      <stop offset=".64" stop-color="#58aa44"/>
    </linearGradient>
    <radialGradient id="radial-gradient" cx="55.78" cy="76.51" fx="55.78" fy="76.51" r="4.13" gradientUnits="userSpaceOnUse">
      <stop offset="0" stop-color="#9bc1e5"/>
      <stop offset="1" stop-color="#9bc1e5"/>
    </radialGradient>
    <radialGradient id="radial-gradient-2" cx="59.69" cy="85.48" fx="59.69" fy="85.48" r="3.26" xlink:href="#radial-gradient"/>
    <radialGradient id="radial-gradient-3" cx="41.94" cy="87.7" fx="41.94" fy="87.7" r="2.01" xlink:href="#radial-gradient"/>
    <radialGradient id="radial-gradient-4" cx="31.19" cy="92.58" fx="31.19" fy="92.58" r="1.8" xlink:href="#radial-gradient"/>
    <radialGradient id="radial-gradient-5" cx="22.14" cy="85.95" fx="22.14" fy="85.95" r="1.46" xlink:href="#radial-gradient"/>
    <radialGradient id="radial-gradient-6" cx="16.42" cy="84.5" fx="16.42" fy="84.5" r="1.2" xlink:href="#radial-gradient"/>
  </defs>
  <g id="circle">
    <path class="cls-11" d="M78.74,57.05c0,21.19-17.18,38.37-38.37,38.37-12.56,0-23.71-6.04-30.71-15.36-4.81-6.41-7.66-14.37-7.66-23,0-21.19,17.18-38.37,38.37-38.37s38.37,17.18,38.37,38.37Z"/>
  </g>
  <g id="text">
    <text class="cls-15" transform="translate(71.83 68.21)"><tspan class="cls-30" x="0" y="0">C</tspan><tspan class="cls-16" x="36.27" y="0">ASB</tspan></text>
    <text class="cls-27" transform="translate(80.58 82.47)"><tspan class="cls-22" x="0" y="0">Center </tspan><tspan class="cls-23" x="36.07" y="0">for</tspan><tspan class="cls-21" x="48.91" y="0"> </tspan><tspan class="cls-22" x="51.36" y="0">Agricultural</tspan><tspan class="cls-22"><tspan x="0" y="13.2">Systems Biology</tspan></tspan></text>
  </g>
  <g id="edge">
    <line class="cls-7" x1="55.78" y1="76.51" x2="46.37" y2="82.47"/>
    <line class="cls-7" x1="59.69" y1="85.48" x2="55.78" y2="76.51"/>
    <line class="cls-7" x1="66.46" y1="79.27" x2="55.78" y2="76.51"/>
    <line class="cls-7" x1="51" y1="88.3" x2="46.37" y2="82.47"/>
    <line class="cls-7" x1="41.94" y1="87.7" x2="46.37" y2="82.47"/>
    <line class="cls-7" x1="31.76" y1="86.21" x2="46.37" y2="82.47"/>
    <line class="cls-7" x1="36.68" y1="91.35" x2="42.18" y2="87.41"/>
    <line class="cls-7" x1="42.79" y1="92.98" x2="42.18" y2="87.41"/>
    <line class="cls-7" x1="27.88" y1="90.05" x2="31.76" y2="86.21"/>
    <line class="cls-7" x1="29.02" y1="82.81" x2="31.76" y2="86.21"/>
    <line class="cls-7" x1="27.88" y1="90.05" x2="31.19" y2="92.58"/>
    <line class="cls-7" x1="24.73" y1="91.91" x2="27.88" y2="90.05"/>
  </g>
  <g id="Layer_6" data-name="Layer 6">
    <path class="cls-1" d="M59.03,72.32c.43,.3-2.68-1.54-3.15-2.33"/>
    <line class="cls-2" x1="57.06" y1="68.17" x2="61.38" y2="69.66"/>
    <line class="cls-4" x1="58.42" y1="66.21" x2="63.18" y2="66.63"/>
    <line class="cls-10" x1="63.07" y1="64.04" x2="59.91" y2="64.23"/>
    <line class="cls-5" x1="62.19" y1="59.58" x2="60.68" y2="59.58"/>
    <line class="cls-8" x1="62.37" y1="58.04" x2="59.46" y2="57.81"/>
    <line class="cls-13" x1="62.05" y1="56.06" x2="58.48" y2="56.06"/>
    <line class="cls-3" x1="61.46" y1="54.19" x2="57.76" y2="54.41"/>
    <line class="cls-14" x1="60.27" y1="52.04" x2="57.17" y2="53.16"/>
    <line class="cls-12" x1="58.42" y1="49.95" x2="56.43" y2="51.22"/>
    <path class="cls-9" d="M53.78,74.43s.09-1.15,2.1-4.44c.66-1.08,1.53-2.39,2.67-3.96,4.61-6.38,4.33-7.71,2.91-11.84s-7.03-7.04-12.77-9.47"/>
    <path class="cls-6" d="M55.4,76.06s2.52-2.15,6.22-6.69c3.69-4.55,1.04-6.73-2.3-11.65-3.34-4.93-5.29-11.97-5.34-14.34s-.32-4.56,.58-6.65"/>
    <path class="cls-18" d="M50.48,44.98s-2.46,1.48-5.31,4.63c-3.16,3.49-7.56,3.42-11.51,1.79-3.15-1.3-6.55-3.39-10.27-6.23,0,0,2.8-.2,6.03-2.31,5.1-3.35,5.52-4.58,8.9-5.12,5.67-.9,9.5,2.23,11.07,6.44,0,0-5.67-3.77-8.17-3.99-2.33-.2-4.47,.81-4.47,.81,5.1-1.25,5.68,.95,5.68,.95,0,0-2.58-.13-8.07,2.88-3.13,1.71-5.68,.88-6.3,.8,0,0,3.77,1.29,6.94-.05s4.81-2.59,8.85-2.4,6.62,1.8,6.62,1.8Z"/>
    <path class="cls-17" d="M53.64,40.45s15.87-5.4,14.92-18.66S61.7,.42,61.7,.42c0,0,.43,2.65-.9,4.55-1.56,2.23-9.38,9.9-12.32,14.31-3.08,4.62-3.03,9.95-1.85,13.17,0,0,1.42,4.8,5.24,7.74,0,0-1.97-12.71-1.12-16.45,.33-2.98,1.78-5.09,1.78-5.09,0,0-1.97,5.61-.76,10.9,0,0,1.08-4.59,6.99-11.92s3.46-10.47,3.46-10.47c0,0,.85,3.82-1.01,8.72s-6.76,8.47-7.86,14.44,.28,10.14,.28,10.14Z"/>
  </g>
  <g id="network">
    <circle class="cls-26" cx="55.78" cy="76.51" r="4.13"/>
    <circle class="cls-28" cx="59.69" cy="85.48" r="3.26"/>
    <circle class="cls-24" cx="66.46" cy="79.27" r="3.2"/>
    <circle class="cls-24" cx="46.37" cy="82.47" r="3.2"/>
    <circle class="cls-29" cx="41.94" cy="87.7" r="2.01"/>
    <circle class="cls-24" cx="51" cy="88.3" r="2.35"/>
    <circle class="cls-24" cx="42.79" cy="92.98" r="1.63"/>
    <circle class="cls-24" cx="36.68" cy="91.35" r="1.63"/>
    <circle class="cls-24" cx="31.76" cy="86.21" r="2.27"/>
    <circle class="cls-24" cx="29.02" cy="82.81" r="1.13"/>
    <circle class="cls-24" cx="25.32" cy="86.83" r="1.13"/>
    <circle class="cls-24" cx="19.12" cy="87.7" r="1.13"/>
    <circle class="cls-24" cx="13.72" cy="84.5" r=".76"/>
    <circle class="cls-24" cx="14.48" cy="82.81" r=".76"/>
    <circle class="cls-24" cx="11.4" cy="81.4" r=".76"/>
    <circle class="cls-24" cx="24.73" cy="91.91" r="1.13"/>
    <circle class="cls-24" cx="22.81" cy="89.44" r="1.13"/>
    <circle class="cls-24" cx="27.88" cy="90.05" r="1.75"/>
    <circle class="cls-20" cx="31.19" cy="92.58" r="1.8"/>
    <circle class="cls-19" cx="22.14" cy="85.95" r="1.46"/>
    <circle class="cls-25" cx="16.42" cy="84.5" r="1.2"/>
  </g>
</svg>