<svg xmlns="http://www.w3.org/2000/svg" fill="none" viewBox="0 0 128 128">
    <path d="M6.2,62.9L6.2,62.9c0-21.8,12.5-35,32.2-35c16.4,0,28.2,10.4,29.5,24.7l0,0.4H54.2L54,52.3c-1.6-7.5-7.1-12.3-15.6-12.3
        c-10.8,0-17.8,8.7-17.8,22.9v0c0,14.3,6.9,23.1,17.8,23.1c8.2,0,13.9-4.7,15.7-12.7l0.1-0.5H68l0,0.5
        c-1.3,14.4-13.2,24.7-29.5,24.7C18.7,97.9,6.2,84.7,6.2,62.9z"/>
    <path d="M71.6,72.7h5.2l7.3,24h-4.6l-1.6-5.8h-7.4l-1.6,5.8h-4.6L71.6,72.7z M71.4,87.2h5.4l-2.6-9.8h-0.1L71.4,87.2z"/>
    <path d="M83.3,90.1l0-0.3h4.1l0,0.2c0.3,1.9,2,3,4.4,3c2.4,0,4-1.2,4-3v0c0-1.6-1-2.4-3.6-3.1L90,86.4c-4.1-0.9-6.2-3.2-6.2-6.8v0
        c0-4.4,3.3-7.3,8-7.3c4.9,0,7.8,2.8,8,7l0,0.3h-4.1l0-0.2c-0.2-1.9-1.7-3-3.9-3c-2.3,0-3.6,1.2-3.6,2.9v0c0,1.5,1.1,2.4,3.5,2.9
        l2.2,0.5c4.4,1,6.4,3,6.4,6.8v0c0,4.6-3.2,7.5-8.5,7.5C86.8,97.2,83.5,94.5,83.3,90.1z"/>
    <path d="M101.2,72.7h9.1c4,0,6.4,2.3,6.4,6v0c0,2.6-1.7,4.9-4.1,5.2v0.1c2.9,0.2,5,2.6,5,5.8v0c0,4.2-2.8,6.8-7.2,6.8h-9.3V72.7z
         M105.6,76.5v6.3h3.1c2.5,0,3.8-1.2,3.8-3.3v0c0-1.9-1.2-3-3.3-3H105.6z M105.6,86.2V93h3.8c2.5,0,3.9-1.2,3.9-3.4v0
        c0-2.2-1.4-3.4-4.1-3.4H105.6z"/>
    <style>
        path { fill: #000; }
        @media (prefers-color-scheme: dark) {
            path { fill: #FFF; }
        }
    </style>
</svg>
